<svg width="423" height="68" viewBox="0 0 423 68" fill="none" xmlns="http://www.w3.org/2000/svg">
<path d="M0.0681152 0H422.232V68H0.0681152V0Z" fill="#0B215B" fill-opacity="0.9"/>
<path d="M113.016 18.264V38.712C113.016 40.536 113.272 42.04 113.784 43.224C114.328 44.376 115.032 45.288 115.896 45.96C116.76 46.632 117.736 47.096 118.824 47.352C119.944 47.608 121.08 47.736 122.232 47.736C123.384 47.736 124.504 47.608 125.592 47.352C126.68 47.096 127.656 46.632 128.52 45.96C129.384 45.288 130.072 44.376 130.584 43.224C131.096 42.04 131.352 40.536 131.352 38.712V18.264H135.384V39.72C135.384 41.384 135.064 42.936 134.424 44.376C133.816 45.816 132.936 47.08 131.784 48.168C130.632 49.224 129.24 50.056 127.608 50.664C125.976 51.272 124.168 51.576 122.184 51.576C117.928 51.576 114.664 50.552 112.392 48.504C110.12 46.424 108.984 43.496 108.984 39.72V18.264H113.016Z" fill="white"/>
<path d="M143.583 18.264H147.423L164.607 44.232H164.703C164.639 43.304 164.591 42.312 164.559 41.256C164.495 40.36 164.447 39.336 164.415 38.184C164.415 37 164.415 35.8 164.415 34.584V18.264H168.255V51H164.415L147.231 24.936H147.135C147.167 25.896 147.215 26.904 147.279 27.96C147.311 28.888 147.343 29.928 147.375 31.08C147.407 32.232 147.423 33.416 147.423 34.632V51H143.583V18.264Z" fill="white"/>
<path d="M201.636 22.872C200.228 22.584 198.724 22.312 197.124 22.056C195.556 21.8 193.732 21.64 191.652 21.576C189.54 21.608 187.716 21.928 186.18 22.536C184.644 23.144 183.38 24.024 182.388 25.176C181.428 26.296 180.708 27.64 180.228 29.208C179.748 30.776 179.508 32.504 179.508 34.392C179.508 36.824 179.812 38.904 180.42 40.632C181.06 42.36 181.924 43.784 183.012 44.904C184.132 45.992 185.428 46.792 186.9 47.304C188.372 47.816 189.956 48.072 191.652 48.072C192.74 48.072 193.716 48.008 194.58 47.88C195.476 47.752 196.244 47.608 196.884 47.448C197.556 47.256 198.164 47.048 198.708 46.824V38.04H192.708V34.44H202.788V48.792C201.668 49.528 200.116 50.2 198.132 50.808C196.18 51.384 194.02 51.656 191.652 51.624C189.476 51.624 187.38 51.368 185.364 50.856C183.38 50.344 181.604 49.448 180.036 48.168C178.5 46.856 177.268 45.08 176.34 42.84C175.412 40.6 174.948 37.768 174.948 34.344C174.948 31.56 175.38 29.144 176.244 27.096C177.108 25.016 178.276 23.304 179.748 21.96C181.252 20.584 182.98 19.56 184.932 18.888C186.916 18.184 189.012 17.832 191.22 17.832C192.66 17.832 194.052 17.912 195.396 18.072C196.74 18.2 197.972 18.36 199.092 18.552C200.212 18.712 201.284 18.92 202.308 19.176L201.636 22.872Z" fill="white"/>
<path d="M234.87 22.872C233.462 22.584 231.958 22.312 230.358 22.056C228.79 21.8 226.966 21.64 224.886 21.576C222.774 21.608 220.95 21.928 219.414 22.536C217.878 23.144 216.614 24.024 215.622 25.176C214.662 26.296 213.942 27.64 213.462 29.208C212.982 30.776 212.742 32.504 212.742 34.392C212.742 36.824 213.046 38.904 213.654 40.632C214.294 42.36 215.158 43.784 216.246 44.904C217.366 45.992 218.662 46.792 220.134 47.304C221.606 47.816 223.19 48.072 224.886 48.072C225.974 48.072 226.95 48.008 227.814 47.88C228.71 47.752 229.478 47.608 230.118 47.448C230.79 47.256 231.398 47.048 231.942 46.824V38.04H225.942V34.44H236.022V48.792C234.902 49.528 233.35 50.2 231.366 50.808C229.414 51.384 227.254 51.656 224.886 51.624C222.71 51.624 220.614 51.368 218.598 50.856C216.614 50.344 214.838 49.448 213.27 48.168C211.734 46.856 210.502 45.08 209.574 42.84C208.646 40.6 208.182 37.768 208.182 34.344C208.182 31.56 208.614 29.144 209.478 27.096C210.342 25.016 211.51 23.304 212.982 21.96C214.486 20.584 216.214 19.56 218.166 18.888C220.15 18.184 222.246 17.832 224.454 17.832C225.894 17.832 227.286 17.912 228.63 18.072C229.974 18.2 231.206 18.36 232.326 18.552C233.446 18.712 234.518 18.92 235.542 19.176L234.87 22.872Z" fill="white"/>
<path d="M251.113 18.264H256.105L267.337 51H263.161L260.281 42.264H246.985L244.057 51H239.881L251.113 18.264ZM258.985 38.424L253.705 22.104H253.561L248.233 38.424H258.985Z" fill="white"/>
<path d="M272.49 18.264H276.522V32.424H293.082V18.264H297.114V51H293.082V36.024H276.522V51H272.49V18.264Z" fill="white"/>
</svg>
