<svg width="392" height="76" viewBox="0 0 392 76" fill="none" xmlns="http://www.w3.org/2000/svg">
<path d="M0.557251 0H391.337V76H0.557251V0Z" fill="#0B215B" fill-opacity="0.9"/>
<path d="M89.8215 22.2639H97.3575C101.518 22.2639 104.59 22.9999 106.574 24.4719C108.59 25.9439 109.598 28.4239 109.598 31.9119C109.598 33.8319 109.23 35.4319 108.494 36.7119C107.758 37.9919 106.83 39.0319 105.71 39.8319C104.622 40.5999 103.438 41.1599 102.158 41.5119C100.878 41.8319 99.6935 41.9919 98.6055 41.9919H93.8535V54.9999H89.8215V22.2639ZM93.8535 38.3919H98.2695C99.3575 38.3919 100.334 38.2959 101.198 38.1039C102.094 37.8799 102.862 37.5279 103.502 37.0479C104.142 36.5359 104.638 35.8639 104.99 35.0319C105.342 34.1679 105.518 33.0959 105.518 31.8159C105.518 30.5359 105.326 29.5119 104.942 28.7439C104.59 27.9439 104.046 27.3359 103.31 26.9199C102.606 26.5039 101.71 26.2319 100.622 26.1039C99.5335 25.9439 98.2695 25.8639 96.8295 25.8639H93.8535V38.3919Z" fill="white"/>
<path d="M115.743 22.2639H119.775V54.9999H115.743V22.2639Z" fill="white"/>
<path d="M128.212 22.2639H132.244V51.1599H147.124V54.9999H128.212V22.2639Z" fill="white"/>
<path d="M152.165 22.2639H156.197V54.9999H152.165V22.2639Z" fill="white"/>
<path d="M164.634 22.2639H168.666V36.4239H185.226V22.2639H189.258V54.9999H185.226V40.0239H168.666V54.9999H164.634V22.2639Z" fill="white"/>
<path d="M208.697 22.2639H228.761V25.9599H212.729V36.4239H227.609V40.0239H212.729V54.9999H208.697V22.2639Z" fill="white"/>
<path d="M234.665 22.2639H238.697V54.9999H234.665V22.2639Z" fill="white"/>
<path d="M247.134 22.2639H251.166V51.1599H266.046V54.9999H247.134V22.2639Z" fill="white"/>
<path d="M271.087 22.2639H291.151V25.9599H275.119V36.4239H289.999V40.0239H275.119V51.3039H291.631V54.9999H271.087V22.2639Z" fill="white"/>
</svg>
